<svg width="256" height="256" viewBox="0 0 256 256" fill="none" xmlns="http://www.w3.org/2000/svg">
<g clip-path="url(#clip0_63_34)">
<path d="M173.986 169.013L86.3945 237.005L57.0537 199.076C49.2087 188.942 45.7765 176.352 47.3895 163.634C48.9292 151.499 54.8817 140.622 64.2205 132.842C64.665 132.461 65.1141 132.103 65.5723 131.745L69.8064 128.464L82.2796 118.775L87.618 114.631L115.295 93.151C131.87 80.2908 154.268 80.0521 170.907 90.9526L166.641 94.2571L161.958 97.8876L157.485 101.362C153.407 99.5949 149.022 98.6907 144.609 98.6907C137.685 98.6907 130.71 100.903 124.831 105.47L97.7221 126.513L92.2828 130.736L79.6539 140.539L75.1082 144.064C74.7278 144.362 74.3475 144.665 73.9809 144.977C67.7947 150.228 63.8585 157.493 62.832 165.599C61.7506 174.186 64.0601 182.681 69.3619 189.525L89.1714 215.135L164.46 156.69C174.839 148.64 178.981 135.463 176.076 123.434L180.392 120.074L184.952 116.535L189.131 113.286C196.857 132.659 191.257 155.612 173.991 169.009L173.986 169.013Z" fill="#1078FF"/>
<path d="M198.946 36.5697C182.771 15.6639 152.619 11.8269 131.732 28.0376L82.0138 66.632C71.9005 74.4803 65.4394 85.8121 63.831 98.5209C62.7908 106.704 63.8447 114.823 66.8141 122.268L79.8921 112.12C78.9894 108.366 78.7649 104.432 79.2689 100.485C80.3595 91.898 84.7173 84.2517 91.545 78.9506L141.264 40.3562C147.147 35.7895 154.117 33.5773 161.041 33.5773C170.705 33.5773 180.278 37.8961 186.638 46.1162C191.935 52.9594 194.249 61.4548 193.168 70.0421C192.077 78.6247 187.72 86.2757 180.887 91.5767L180.397 91.9577L176.337 95.1062L172.259 98.2685L167.841 101.697L163.703 104.914L159.501 108.173L131.169 130.167C124.336 135.468 115.854 137.79 107.281 136.698C104.243 136.312 101.324 135.509 98.5835 134.329L85.1572 144.753C91.151 148.686 98.0108 151.233 105.329 152.16C107.038 152.381 108.747 152.5 110.452 152.537V165.778C110.452 170.083 113.934 173.571 118.233 173.571C122.531 173.571 126.014 170.083 126.014 165.778V150.26C131.256 148.571 136.223 145.969 140.7 142.49L169.605 120.06L173.707 116.87L177.776 113.708L182.143 110.325L186.18 107.186L190.212 104.061L190.423 103.895C200.536 96.0379 206.997 84.7152 208.606 71.9973C210.219 59.2885 206.787 46.6991 198.942 36.5697H198.946Z" fill="#1078FF"/>
</g>
<defs>
<clipPath id="clip0_63_34">
<rect width="162" height="219" fill="white" transform="translate(47 18)"/>
</clipPath>
</defs>
</svg>
